<?xml version="1.0" encoding="iso-8859-1"?>
<!-- Generator: Adobe Illustrator 19.0.0, SVG Export Plug-In . SVG Version: 6.00 Build 0)  -->
<svg version="1.1" id="Capa_1" xmlns="http://www.w3.org/2000/svg" xmlns:xlink="http://www.w3.org/1999/xlink" x="0px" y="0px"
	 viewBox="0 0 512 512" style="enable-background:new 0 0 512 512;" xml:space="preserve">
<rect x="10.098" y="100.03" style="fill:#FFC66C;" width="491.9" height="311.937"/>
<polygon style="fill:#FFFFFF;" points="248.931,100.032 243.304,103.032 10.102,336.234 10.102,411.968 322.039,100.032 "/>
<path style="fill:#EF3C3C;" d="M159.841,198.259l-22.614,31.077l-22.589-31.102c-8.486-11.684-6.672-27.91,4.187-37.43l0,0
	c10.534-9.235,26.278-9.242,36.82-0.017l0.005,0.004C166.53,170.314,168.349,186.566,159.841,198.259z"/>
<path style="fill:#FF5D5D;" d="M114.659,198.225l22.567,31.111l-36.56,11.874c-13.734,4.46-28.605-2.28-34.304-15.549l0,0
	c-5.528-12.871-0.67-27.847,11.362-35.023l0.006-0.003C90.149,183.227,106.168,186.519,114.659,198.225z"/>
<path style="fill:#FE8F8D;" d="M100.664,241.185l36.563-11.85l-0.005,38.439c-0.002,14.441-11.008,26.501-25.389,27.82l0,0
	c-13.95,1.28-26.692-7.968-29.798-21.629l-0.001-0.006C78.826,259.86,86.909,245.643,100.664,241.185z"/>
<path style="fill:#FF5D5D;" d="M137.197,267.77l0.029-38.434l36.557,11.884c13.733,4.464,21.803,18.658,18.613,32.742l0,0
	c-3.093,13.662-15.827,22.922-29.778,21.656l-0.006-0.001C148.21,294.309,137.186,282.23,137.197,267.77z"/>
<path style="fill:#FE8F8D;" d="M173.771,241.24l-36.545-11.905l22.598-31.095c8.489-11.682,24.482-14.969,36.892-7.584l0,0
	c12.038,7.165,16.911,22.136,11.395,35.012l-0.003,0.006C202.415,238.967,187.52,245.718,173.771,241.24z"/>
<path d="M502.002,90.034h-491.9c-5.521,0-9.998,4.477-9.998,9.998v234.876c-0.139,0.957-0.139,1.927,0,2.882v74.178
	c0,5.521,4.477,9.998,9.998,9.998h90.557c5.521,0,9.998-4.477,9.998-9.998s-4.477-9.998-9.998-9.998H34.24l105.722-105.723
	c5.833,5.15,13.302,8.54,21.656,9.318c0.032,0.003,0.064,0.006,0.097,0.009c1.147,0.104,2.287,0.155,3.419,0.155
	c17.51-0.001,33.084-12.208,37.013-29.561c2.162-9.544,0.574-19.055-3.86-26.964c8.257-3.793,15.147-10.571,19.013-19.595
	c0.015-0.034,0.029-0.068,0.043-0.103c7.394-17.392,0.737-37.773-15.513-47.444c-5.687-3.384-11.891-5.128-18.059-5.358
	l66.603-66.603c0.023-0.023,0.042-0.049,0.065-0.072h47.462l-36.774,36.774c-3.904,3.904-3.904,10.235,0,14.14
	c1.953,1.952,4.511,2.928,7.07,2.928s5.117-0.977,7.07-2.928l50.843-50.843c0.023-0.023,0.042-0.048,0.064-0.071h165.83v291.941
	H179.068c-5.521,0-9.998,4.477-9.998,9.998s4.477,9.998,9.998,9.998h322.934c5.521,0,9.998-4.477,9.998-9.998V100.032
	C512,94.511,507.523,90.034,502.002,90.034z M106.359,203.837c0.064,0.09,0.123,0.183,0.188,0.273l14.498,19.961l-23.464,7.604
	c-0.108,0.035-0.213,0.076-0.321,0.112c-8.781,2.676-18.073-1.598-21.712-10.071c-3.525-8.21-0.416-17.849,7.233-22.453
	c0.023-0.014,0.046-0.027,0.069-0.041C90.787,194.487,100.825,196.488,106.359,203.837z M125.416,168.322
	c3.37-2.955,7.598-4.433,11.828-4.433c4.223,0,8.447,1.475,11.817,4.422c0.015,0.014,0.029,0.026,0.045,0.04
	c6.913,6.085,8.1,16.221,2.839,23.739c-0.068,0.092-0.141,0.18-0.208,0.273l-14.502,19.956l-14.482-19.964
	c-0.068-0.094-0.142-0.183-0.21-0.276C117.282,184.554,118.482,174.4,125.416,168.322z M103.416,250.82
	c0.113-0.036,0.226-0.066,0.339-0.103l23.463-7.619l-0.019,24.664c0,0.116,0.007,0.23,0.008,0.345
	c-0.167,9.18-7.107,16.69-16.289,17.532c-8.921,0.805-17.148-5.152-19.135-13.888c-0.005-0.023-0.011-0.047-0.016-0.069
	C89.757,262.702,94.75,253.813,103.416,250.82z M75.487,284.988c5.42,10.595,15.599,18.099,27.302,20.153L20.1,387.83v-47.455
	L75.487,284.988z M182.645,271.753c-1.976,8.719-10.158,14.685-19.06,13.914c-0.023-0.003-0.046-0.005-0.069-0.007
	c-9.198-0.835-16.144-8.351-16.305-17.547c0.001-0.112,0.008-0.223,0.008-0.336l0.004-24.671l23.45,7.638
	c0.116,0.038,0.232,0.069,0.348,0.106C179.689,253.854,184.679,262.768,182.645,271.753z M198.92,221.731
	c-0.011,0.025-0.021,0.051-0.031,0.076c-3.658,8.445-12.926,12.695-21.698,10.016c-0.107-0.036-0.21-0.077-0.318-0.112
	l-23.461-7.626l14.512-19.943c0.069-0.095,0.132-0.194,0.201-0.29c5.533-7.322,15.558-9.321,23.478-4.604
	C199.303,203.83,202.449,213.496,198.92,221.731z M169.844,162.352c-1.999-3.318-4.534-6.394-7.61-9.085
	c-0.021-0.019-0.043-0.037-0.064-0.056c-14.257-12.423-35.711-12.395-49.936,0.074c-7.359,6.452-11.665,15.079-12.726,24.083
	c-8.878-1.779-18.399-0.361-26.808,4.624c-0.032,0.019-0.064,0.038-0.097,0.058c-16.27,9.703-22.902,30.147-15.428,47.554
	c3.862,8.992,10.736,15.754,18.97,19.545c-1.913,3.404-3.296,7.105-4.08,10.98l-51.966,51.966V110.03h202.066L169.844,162.352z"/>
<path d="M141.076,401.97c-2.629,0-5.209,1.069-7.069,2.929c-1.86,1.861-2.929,4.439-2.929,7.069c0,2.629,1.069,5.209,2.929,7.068
	c1.86,1.86,4.439,2.93,7.069,2.93s5.209-1.07,7.068-2.93c1.86-1.859,2.93-4.438,2.93-7.068c0-2.629-1.07-5.209-2.93-7.069
	C146.285,403.039,143.705,401.97,141.076,401.97z"/>
<path d="M247.724,188.484c1.859-1.86,2.929-4.429,2.929-7.069c0-2.629-1.07-5.209-2.929-7.068c-1.86-1.86-4.439-2.93-7.069-2.93
	c-2.639,0-5.219,1.07-7.069,2.93c-1.859,1.859-2.929,4.438-2.929,7.068c0,2.63,1.07,5.209,2.929,7.069
	c1.86,1.86,4.43,2.929,7.069,2.929C243.284,191.412,245.864,190.343,247.724,188.484z"/>
<path d="M295.201,218.008h22.23c5.521,0,9.998-4.477,9.998-9.998c0-5.521-4.477-9.998-9.998-9.998h-22.23
	c-11.112,0-20.153,9.041-20.153,20.153v35.679c0,11.112,9.041,20.153,20.153,20.153h19.211c11.112,0,20.153-9.041,20.153-20.153
	v-17.839c0-5.521-4.477-9.998-9.998-9.998h-12.076c-5.521,0-9.998,4.477-9.998,9.998c0,5.521,4.477,9.998,9.998,9.998h2.078v7.841
	c0,0.087-0.07,0.157-0.157,0.157h-19.211c-0.087,0-0.157-0.07-0.157-0.157v-35.679C295.044,218.078,295.114,218.008,295.201,218.008
	z"/>
<path d="M410.15,218.008c5.521,0,9.998-4.477,9.998-9.998c0-5.521-4.477-9.998-9.998-9.998h-21.125
	c-5.521,0-9.998,4.477-9.998,9.998v55.989c0,5.521,4.477,9.998,9.998,9.998s9.998-4.477,9.998-9.998v-18.037h11.127
	c5.521,0,9.998-4.477,9.998-9.998c0-5.521-4.477-9.998-9.998-9.998h-11.127v-7.957H410.15z"/>
<path d="M357.032,273.919c5.521,0,9.998-4.477,9.998-9.998V208.01c0-5.521-4.477-9.998-9.998-9.998s-9.998,4.477-9.998,9.998v55.912
	C347.034,269.442,351.511,273.919,357.032,273.919z"/>
<path d="M448.013,273.919c5.521,0,9.998-4.477,9.998-9.998v-45.914h4.273c5.521,0,9.998-4.477,9.998-9.998
	c0-5.521-4.477-9.998-9.998-9.998h-28.542c-5.521,0-9.998,4.477-9.998,9.998c0,5.521,4.477,9.998,9.998,9.998h4.273v45.914
	C438.015,269.442,442.492,273.919,448.013,273.919z"/>
<path d="M216.06,313.435v29.099c0,12.926,10.517,23.442,23.442,23.442h18.941c5.521,0,9.998-4.477,9.998-9.998
	s-4.477-9.998-9.998-9.998h-18.941c-1.9,0-3.446-1.547-3.446-3.446v-29.099c0-1.9,1.547-3.446,3.446-3.446h18.941
	c5.521,0,9.998-4.477,9.998-9.998c0-5.521-4.477-9.998-9.998-9.998h-18.941C226.577,289.993,216.06,300.51,216.06,313.435z"/>
<path d="M408.021,299.991v55.989c0,5.521,4.477,9.998,9.998,9.998h19.607c12.926,0,23.442-10.517,23.442-23.442v-29.099
	c0-12.926-10.517-23.442-23.442-23.442h-19.607C412.498,289.993,408.021,294.47,408.021,299.991z M428.017,309.989h9.609
	c1.9,0,3.446,1.547,3.446,3.446v29.099c0,1.9-1.547,3.446-3.446,3.446h-9.609V309.989z"/>
<path d="M306.881,289.993c-4.197,0-7.948,2.622-9.39,6.564l-20.473,55.989c-1.896,5.187,0.771,10.928,5.956,12.823
	c5.187,1.899,10.928-0.771,12.823-5.956l11.083-30.309l11.083,30.309c1.482,4.053,5.312,6.567,9.391,6.567
	c1.14,0,2.3-0.197,3.433-0.611c5.186-1.896,7.852-7.637,5.956-12.823l-20.473-55.989
	C314.829,292.616,311.078,289.993,306.881,289.993z"/>
<path d="M347.034,328.281v27.621c0,5.521,4.477,9.998,9.998,9.998s9.998-4.477,9.998-9.998v-3.488l10.559,10.559
	c1.953,1.952,4.511,2.928,7.07,2.928s5.117-0.977,7.07-2.928c3.904-3.904,3.904-10.235,0-14.14l-10.904-10.904
	c10.329-1.832,18.199-10.868,18.199-21.714v-4.163c0-12.164-9.895-22.059-22.059-22.059h-19.933c-5.521,0-9.998,4.477-9.998,9.998
	C347.034,299.991,347.034,328.278,347.034,328.281z M367.03,309.989h9.935c1.138,0,2.063,0.926,2.063,2.063v4.163
	c0,1.138-0.926,2.063-2.063,2.063h-9.935v-4.145V309.989z"/>
<g>
</g>
<g>
</g>
<g>
</g>
<g>
</g>
<g>
</g>
<g>
</g>
<g>
</g>
<g>
</g>
<g>
</g>
<g>
</g>
<g>
</g>
<g>
</g>
<g>
</g>
<g>
</g>
<g>
</g>
</svg>
