<?xml version="1.0" encoding="iso-8859-1"?>
<!-- Generator: Adobe Illustrator 19.0.0, SVG Export Plug-In . SVG Version: 6.00 Build 0)  -->
<svg version="1.1" id="Capa_1" xmlns="http://www.w3.org/2000/svg" xmlns:xlink="http://www.w3.org/1999/xlink" x="0px" y="0px"
	 viewBox="0 0 512 512" style="enable-background:new 0 0 512 512;" xml:space="preserve">
<g>
	<g transform="translate(1 1)">
		<g>
			<path style="fill:#E3E7F2;" d="M357.4,84.333v8.533h-51.2v-8.533c0-14.138,11.462-25.6,25.6-25.6S357.4,70.195,357.4,84.333z"/>
			<path style="fill:#E3E7F2;" d="M306.2,33.133v59.733H255V33.133c0-14.138,11.462-25.6,25.6-25.6S306.2,18.995,306.2,33.133z"/>
			<path style="fill:#E3E7F2;" d="M255,75.8v17.067h-51.2V75.8c0-14.138,11.462-25.6,25.6-25.6C243.539,50.2,255,61.662,255,75.8z"
				/>
			<path style="fill:#E3E7F2;" d="M468.333,92.867H41.667c-9.414,0.028-17.039,7.652-17.067,17.067v187.733
				c0.028,9.414,7.653,17.039,17.067,17.067h246.869c13.259-14.926,31.805-24.107,51.713-25.6c0.023,0,0.045-0.008,0.061-0.025
				s0.025-0.038,0.024-0.061h51.2v25.685h76.8c9.414-0.028,17.039-7.652,17.067-17.067V109.933
				C485.373,100.519,477.748,92.894,468.333,92.867z"/>
		</g>
		<path style="fill:#A4C2F7;" d="M485.4,109.933v187.733c-0.028,9.414-7.652,17.039-17.067,17.067h-25.6
			c9.414-0.028,17.039-7.652,17.067-17.067V109.933c-0.027-9.414-7.652-17.039-17.067-17.067h25.6
			C477.748,92.894,485.373,100.519,485.4,109.933z"/>
		<path style="fill:#E3E7F2;" d="M254.317,279.235v1.365H92.867c0.002-9.053-3.593-17.737-9.995-24.139
			c-6.402-6.402-15.085-9.997-24.139-9.995v-85.333c9.053,0.002,17.737-3.593,24.138-9.995c6.402-6.402,9.997-15.085,9.995-24.138
			h161.45c-42.038,0-76.117,34.079-76.117,76.117S212.278,279.235,254.317,279.235z"/>
		<path style="fill:#A4C2F7;" d="M451.267,161.133v85.333c-9.053-0.002-17.737,3.593-24.139,9.995
			c-6.402,6.402-9.997,15.085-9.995,24.139H254.317v-1.365c39.866-0.028,72.957-30.811,75.863-70.571
			c0.171-1.792,0.256-3.669,0.256-5.547C330.416,161.352,296.763,127.395,255,127h162.133c-0.002,9.053,3.593,17.737,9.995,24.138
			C433.53,157.54,442.213,161.136,451.267,161.133z"/>
		<g>
			<path style="fill:#E3E7F2;" d="M425.667,161.133v85.333c-9.053-0.002-17.737,3.593-24.139,9.995
				c-6.402,6.402-9.997,15.085-9.995,24.139H254.317v-1.365c39.866-0.028,72.957-30.811,75.863-70.571
				c0.171-1.792,0.256-3.669,0.256-5.547C330.416,161.352,296.763,127.395,255,127h136.533c-0.002,9.053,3.593,17.737,9.995,24.138
				C407.93,157.54,416.613,161.136,425.667,161.133z"/>
			<path style="fill:#E3E7F2;" d="M330.435,203.117c0,1.877-0.085,3.755-0.256,5.547c-3.025,41.192-38.359,72.45-79.612,70.428
				s-73.362-36.585-72.344-77.876c1.018-41.291,34.79-74.23,76.093-74.216H255C296.763,127.395,330.416,161.352,330.435,203.117z"/>
		</g>
		<path style="fill:#A4C2F7;" d="M186.733,425.667H357.4c4.713,0,8.533,3.82,8.533,8.533v59.733c0,4.713-3.82,8.533-8.533,8.533
			H186.733c-4.713,0-8.533-3.821-8.533-8.533V434.2C178.2,429.487,182.021,425.667,186.733,425.667z"/>
		<path style="fill:#E3E7F2;" d="M186.733,425.667H331.8c4.713,0,8.533,3.82,8.533,8.533v59.733c0,4.713-3.82,8.533-8.533,8.533
			H186.733c-4.713,0-8.533-3.821-8.533-8.533V434.2C178.2,429.487,182.021,425.667,186.733,425.667z"/>
		<path style="fill:#7FABFA;" d="M391.533,212.333v136.533c0,0,0,59.733-42.667,85.333h-153.6c0,0-38.144-68.693-42.24-119.467
			h135.509c13.259-14.926,31.805-24.107,51.713-25.6c0.023,0,0.045-0.008,0.061-0.025s0.025-0.038,0.024-0.061v-76.715
			c0-14.138,11.462-25.6,25.6-25.6S391.533,198.195,391.533,212.333z"/>
		<path style="fill:#E3E7F2;" d="M365.933,212.333v136.533c0,0,0,59.733-42.667,85.333h-128c0,0-38.144-68.693-42.24-119.467
			h135.509c13.259-14.926,31.805-24.107,51.713-25.6c0.023,0,0.045-0.008,0.061-0.025s0.025-0.038,0.024-0.061v-76.715
			c-0.012-9.154,4.869-17.616,12.8-22.187c1.92,1.151,3.696,2.526,5.291,4.096C363.232,199.035,365.934,205.545,365.933,212.333z"/>
	</g>
	<g transform="translate(1 6)">
		<path style="fill:#FFFFFF;" d="M178.2,429.2v59.733c0.014,4.707,3.826,8.52,8.533,8.533h25.6c-4.707-0.014-8.52-3.826-8.533-8.533
			V429.2c0.014-4.707,3.826-8.52,8.533-8.533h4.037c-10.175-19.854-34.515-70.896-37.744-110.933h-25.6
			c3.229,40.037,27.569,91.08,37.744,110.933h-4.037C182.026,420.68,178.214,424.493,178.2,429.2z"/>
		<path style="fill:#FFFFFF;" d="M203.8,70.8l0,17.067h25.6V70.8c0.01-9.105,4.881-17.512,12.775-22.048
			c-3.867-2.299-8.277-3.525-12.775-3.552c-6.792-0.009-13.309,2.685-18.112,7.488C206.485,57.491,203.791,64.008,203.8,70.8z"/>
		<path style="fill:#FFFFFF;" d="M24.6,104.933v187.733c0.028,9.414,7.653,17.039,17.067,17.067h25.6
			c-9.414-0.028-17.039-7.652-17.067-17.067V104.933c0.028-9.414,7.652-17.039,17.067-17.067h-25.6
			C32.252,87.894,24.628,95.519,24.6,104.933z"/>
	</g>
	<g>
		<polygon style="fill:#FFFFFF;" points="34.133,110.933 34.133,221.867 34.133,298.667 17.067,298.667 17.067,221.867 
			17.067,110.933 		"/>
		<g>
			<path style="fill:#428DFF;" d="M17.067,298.667c0.015,14.132,11.468,25.585,25.6,25.6h103.769
				c5.244,38.252,25.712,82.535,36.184,103.27c-7.09,2.215-11.927,8.769-11.953,16.197v51.2c0.011,9.421,7.645,17.056,17.067,17.067
				H358.4c9.421-0.011,17.056-7.645,17.067-17.067v-51.2c-0.017-4.992-2.234-9.724-6.059-12.932
				c31.24-30.546,31.659-78.623,31.659-80.934v-25.6h68.267c14.132-0.015,25.585-11.468,25.6-25.6V110.933
				c-0.015-14.132-11.468-25.585-25.6-25.6h-102.4c0.085-12.226-6.42-23.55-17.024-29.636c-10.604-6.086-23.663-5.99-34.176,0.25
				V34.133C315.733,15.282,300.451,0,281.6,0c-18.851,0-34.133,15.282-34.133,34.133v13.266c-5.167-3.068-11.058-4.701-17.067-4.732
				c-18.843,0.02-34.113,15.29-34.133,34.133v8.533h-153.6c-14.132,0.015-25.585,11.468-25.6,25.6v34.133
				c0,4.713,3.821,8.533,8.533,8.533s8.533-3.821,8.533-8.533v-34.133c0.005-4.711,3.822-8.529,8.533-8.533h426.667
				c4.711,0.005,8.529,3.822,8.533,8.533v187.733c-0.005,4.711-3.822,8.529-8.533,8.533h-68.267v-17.067h17.067
				c2.263,0.001,4.434-0.898,6.035-2.499c1.6-1.6,2.499-3.771,2.499-6.035c0.015-14.132,11.468-25.585,25.6-25.6
				c2.263,0.001,4.434-0.898,6.035-2.499c1.6-1.6,2.499-3.771,2.499-6.035v-85.333c0.001-2.263-0.898-4.434-2.499-6.035
				c-1.6-1.6-3.771-2.499-6.035-2.499c-14.132-0.015-25.585-11.468-25.6-25.6c0.001-2.263-0.898-4.434-2.499-6.035
				c-1.6-1.6-3.771-2.499-6.035-2.499H93.867c-2.263-0.001-4.434,0.898-6.035,2.499c-1.6,1.6-2.499,3.771-2.499,6.035
				c-0.015,14.132-11.468,25.585-25.6,25.6c-2.263-0.001-4.434,0.898-6.035,2.499s-2.499,3.771-2.499,6.035v85.333
				c-0.001,2.263,0.898,4.434,2.499,6.035s3.771,2.499,6.035,2.499c14.132,0.015,25.585,11.468,25.6,25.6
				c-0.001,2.263,0.898,4.434,2.499,6.035c1.6,1.6,3.771,2.499,6.035,2.499h215.815c-8.96,4.092-17.037,9.888-23.781,17.067H42.667
				c-4.711-0.005-8.529-3.822-8.533-8.533v-85.333c0-4.713-3.821-8.533-8.533-8.533s-8.533,3.82-8.533,8.533V298.667z
				 M264.533,34.133c0-9.426,7.641-17.067,17.067-17.067s17.067,7.641,17.067,17.067v51.2h-34.133V34.133z M213.333,76.8
				c0-9.426,7.641-17.067,17.067-17.067c9.426,0,17.067,7.641,17.067,17.067v8.533h-34.133V76.8z M332.8,68.267
				c9.418,0.018,17.049,7.649,17.067,17.067h-34.133C315.744,75.912,323.379,68.277,332.8,68.267z M187.733,494.933v-51.2H358.4
				l0.009,51.2H187.733z M443.733,169.804v69.992c-16.74,3.45-29.82,16.531-33.271,33.271h-9.396v-59.733
				c0-18.851-15.282-34.133-34.133-34.133c-18.851,0-34.133,15.282-34.133,34.133v59.733h-25.743
				c3.279-2.419,6.382-5.069,9.284-7.929c2.156-2.155,2.997-5.297,2.208-8.242c-0.789-2.944-3.089-5.244-6.033-6.033
				c-2.944-0.789-6.086,0.053-8.242,2.208c-6.22,6.239-13.592,11.21-21.708,14.637c-16.998,7.108-36.135,7.108-53.133,0
				c-25.267-10.695-41.683-35.471-41.683-62.908s16.416-52.213,41.683-62.908c16.998-7.108,36.135-7.108,53.133,0
				c8.116,3.427,15.489,8.398,21.708,14.637c2.155,2.156,5.297,2.997,8.242,2.208c2.944-0.789,5.244-3.089,6.033-6.033
				c0.789-2.944-0.053-6.086-2.208-8.242c-2.902-2.86-6.005-5.51-9.284-7.929h103.405
				C413.913,153.273,426.994,166.354,443.733,169.804z M68.267,239.796v-69.992c16.74-3.45,29.82-16.531,33.271-33.271h103.405
				c-21.698,15.979-34.507,41.321-34.507,68.267c0,26.946,12.81,52.288,34.507,68.266H101.538
				C98.087,256.327,85.006,243.246,68.267,239.796z M273.033,366.917h0.033c4.689-0.01,8.495-3.794,8.533-8.483
				c0.017-2.133,1.117-52.375,60.791-59.833c0.509-0.11,1.007-0.268,1.486-0.472c1.229-0.291,2.347-0.933,3.22-1.846
				c0.084-0.08,0.188-0.13,0.269-0.213c1.586-1.57,2.485-3.704,2.501-5.935v-76.8c0-9.426,7.641-17.067,17.067-17.067
				S384,203.908,384,213.333v136.521c0,0.542-0.671,53.424-36.765,76.812H201.384c-7.559-14.407-31.626-62.51-37.755-102.4h110.23
				c-5.492,10.588-8.671,22.223-9.326,34.133C264.535,363.096,268.337,366.905,273.033,366.917L273.033,366.917z"/>
			<path style="fill:#428DFF;" d="M25.6,187.733c2.259-0.034,4.422-0.918,6.059-2.475c3.3-3.365,3.3-8.752,0-12.117l-1.279-1.025
				c-0.476-0.324-0.993-0.583-1.538-0.771c-0.484-0.246-1.003-0.417-1.538-0.509c-0.563-0.096-1.133-0.153-1.704-0.171
				c-2.259,0.031-4.423,0.915-6.059,2.475c-3.221,3.397-3.221,8.72,0,12.117c0.815,0.77,1.77,1.379,2.813,1.792
				C23.381,187.488,24.484,187.72,25.6,187.733z"/>
			<path style="fill:#428DFF;" d="M279.958,203.154c-4.482-3.008-9.543-5.046-14.858-5.983v-18.938
				c1.806,0.522,3.523,1.314,5.092,2.349c3.866,2.697,9.186,1.749,11.883-2.117c2.697-3.866,1.749-9.186-2.117-11.883
				c-4.566-3.022-9.731-5.02-15.142-5.858c-0.602-4.093-4.114-7.125-8.25-7.125c-4.137,0-7.648,3.033-8.25,7.126
				c-5.408,0.838-10.571,2.836-15.133,5.857c-7.017,4.187-11.315,11.756-11.317,19.927c-0.002,8.171,4.293,15.741,11.308,19.932
				c4.482,3.009,9.543,5.048,14.858,5.987v18.935c-1.8-0.521-3.511-1.311-5.075-2.343c-3.863-2.651-9.141-1.693-11.826,2.147
				c-2.685,3.84-1.773,9.126,2.043,11.844c4.574,3.073,9.749,5.137,15.181,6.057c0.681,4.003,4.15,6.931,8.21,6.931
				c4.06,0,7.529-2.928,8.21-6.931c5.436-0.919,10.614-2.986,15.189-6.061c7.015-4.189,11.31-11.759,11.308-19.93
				C291.273,214.908,286.975,207.34,279.958,203.154L279.958,203.154z M242.95,192.45c-2.174-1.263-3.653-3.45-4.017-5.938
				c0.364-2.489,1.847-4.675,4.025-5.933c1.564-1.032,3.275-1.822,5.075-2.343v16.639
				C246.233,194.311,244.521,193.495,242.95,192.45z M270.192,229.017c-1.569,1.035-3.286,1.828-5.092,2.349v-16.642
				c1.801,0.563,3.513,1.379,5.083,2.426c2.157,1.281,3.632,3.456,4.025,5.933C273.816,225.559,272.345,227.733,270.192,229.017z"/>
			<path style="fill:#428DFF;" d="M102.4,221.867v-34.133c0-4.713-3.821-8.533-8.533-8.533c-4.713,0-8.533,3.821-8.533,8.533v34.133
				c0,4.713,3.821,8.533,8.533,8.533C98.58,230.4,102.4,226.579,102.4,221.867z"/>
			<path style="fill:#428DFF;" d="M409.6,187.733v34.133c0,4.713,3.82,8.533,8.533,8.533s8.533-3.821,8.533-8.533v-34.133
				c0-4.713-3.82-8.533-8.533-8.533S409.6,183.021,409.6,187.733z"/>
		</g>
	</g>
</g>
<g>
</g>
<g>
</g>
<g>
</g>
<g>
</g>
<g>
</g>
<g>
</g>
<g>
</g>
<g>
</g>
<g>
</g>
<g>
</g>
<g>
</g>
<g>
</g>
<g>
</g>
<g>
</g>
<g>
</g>
</svg>
